<svg id="edieZ8vjEzm1" xmlns="http://www.w3.org/2000/svg" xmlns:xlink="http://www.w3.org/1999/xlink" viewBox="0 0 893.68018 749.53003" shape-rendering="geometricPrecision" text-rendering="geometricPrecision"><path d="M283.31919,711.06143c-11.167187,13.351749-17.843485,29.882715-19.08061,47.24488-.332677,3.732948-.074864,7.495004.76395,11.14767.932088,3.531759,2.792923,6.749489,5.38916,9.31886c2.37262,2.44432,5.0826,4.66983,6.81972,7.64833c1.752698,3.110413,2.094604,6.821.9398,10.19932-1.31436,4.19886-4.05905,7.675-6.86126,10.98117-3.11132,3.67084-6.40118,7.43439-7.62052,12.20761-.14774.57835-1.0365.31529-.889-.26218c2.12146-8.3046,9.95851-13.2348,13.52953-20.768c1.66631-3.51511,2.28338-7.55368.49987-11.15046-1.55961-3.14523-4.35221-5.44259-6.77592-7.89675-2.569453-2.469366-4.495173-5.530329-5.60894-8.9155-1.022085-3.598165-1.424401-7.344025-1.18972-11.07717.394265-8.412949,2.108869-16.711591,5.081-24.59192c3.342194-9.012582,8.201484-17.387024,14.36763-24.761.38183-.45624,1.01461.22181.63527.67508Z" transform="matrix(1.709001 0 0 1.76529-1034.704706-909.019432)" fill="#fff"/><path d="M264.30786,752.69231c-5.958181-1.245444-10.136801-6.623962-9.87071-12.7051.013223-.249466.221649-.443643.471425-.439197s.451159.205919.455495.455697c-.258331,5.664396,3.648889,10.672407,9.206,11.79963.58434.11925.31881,1.00754-.26219.889Z" transform="matrix(1.616985 0 0 1.565073-999.497603-695.182706)" fill="#fff"/><path d="M269.02545,777.69191c5.070848-3.253029,8.729291-8.297808,10.24583-14.1284.14979-.5778,1.03858-.31491.889.26219-1.589471,6.064507-5.407315,11.306637-10.6916,14.68021-.50389.3212-.94436-.49454-.44321-.814Z" transform="matrix(1.306537 0 0 1.244935-817.054073-559.270818)" fill="#fff"/><path d="M272.5461,726.98469c2.168616.946427,4.667789.738948,6.65065-.55213.49957-.32743.93953.4887.44321.814-2.196413,1.41559-4.951662,1.650479-7.356.62711-.23991-.079188-.377071-.331093-.3134-.57558.073482-.244608.330244-.384414.57558-.3134Z" transform="matrix(1.616985 0 0 1.565073-999.497603-695.182706)" fill="#fff"/><path d="M765.793,791.01241c-6.007333.455648-11.9657-1.369675-16.687-5.112-.46747-.37116-1.01885.37385-.55194.74457c4.920354,3.885199,11.124812,5.772138,17.37514,5.28424.59572-.04691.45628-.96343-.1362-.91677Z" transform="translate(-607.623768-253.250759)" fill="#fff"/><path d="M549.21246,475.4666c-.978678-1.454832-.951105-3.364431.06917-4.7904c1.026858-1.3746,2.393646-2.458426,3.96609-3.145c3.246171-1.652084,6.742761-2.757057,10.3488-3.27037c2.74024-.389,5.73142-.51308,7.857-2.28572c2.11163-1.761,3.289-5.05381,6.02487-5.32862c2.64516-.26571,4.67864,2.62949,7.331,2.80923c3.26926.22155,5.40986-3.60486,8.59126-4.38961c2.12951-.52529,4.31916.40172,6.31656,1.30789l11.98707,5.43821l6.14422,2.78748c2.14618.97366,4.56646,2.28482,4.9716,4.60644.55667,3.18991-2.99056,5.44068-6.0242,6.57313-21.660432,7.993912-45.462403,7.996898-67.12484.00842" transform="matrix(3.962456 0 0 4.113588-1845.1114-1579.606909)" fill="#6c63ff"/><path d="M589.77148,507.735h-9c-20.148929-.022832-36.477168-16.351071-36.5-36.5v-.5h82v.5c-.022832,20.148929-16.351071,36.477168-36.5,36.5Z" transform="matrix(3.962456 0 0 4.113588-1845.1114-1579.606909)" fill="#e4e4e4"/><path d="M580.77152,457.735c0,2.48528-4.5,4.5-4.5,4.5s-4.5-2.01472-4.5-4.5s4.5-4.5,4.5-4.5s4.5,2.0147,4.5,4.5Z" transform="matrix(3.962456 0 0 4.113588-1845.1114-1579.606909)" fill="#3f3d56"/><path d="M607.77152,457.735c0,2.48528-4.5,4.5-4.5,4.5s-4.5-2.01472-4.5-4.5s4.5-4.5,4.5-4.5s4.5,2.0147,4.5,4.5Z" transform="matrix(3.962456 0 0 4.113588-1845.1114-1579.606909)" fill="#3f3d56"/><path d="M589.77152,466.735c0,2.48528-4.5,4.5-4.5,4.5s-4.5-2.01472-4.5-4.5s4.5-4.5,4.5-4.5s4.5,2.0147,4.5,4.5Z" transform="matrix(3.962456 0 0 4.113588-1845.1114-1579.606909)" fill="#3f3d56"/><circle r="4.5" transform="matrix(3.029358 0 0 2.901029 389.513248 227.654255)" fill="#3f3d56"/><path d="M492.82588,434.06428l70.97258,9.80189c1.748857.241352,3.223719,1.423992,3.839321,3.078617s.272398,3.513676-.893419,4.839429-2.965728,1.903831-4.685482,1.504834l-69.7937-16.18747c-.805254-.186646-1.321203-.973735-1.171144-1.786603s.913025-1.363863,1.731844-1.250697Z" transform="matrix(3.962456 0 0 4.113588-1825.211096-1584.619274)" fill="#e4e4e4"/></svg>